/* XPM */
static char * fly_9ball_xpm[] = {
"54 36 19 1",
" 	s None	c None",
".	c #96580000d34c",
"X	c #cb2b7df7ebad",
"o	c #fffffffff3ce",
"O	c #00000000ffff",
"+	c #30c282074924",
"@	c #7df77df7ffff",
"#	c #9a69c30ba699",
"$	c #ffffd75c0000",
"%	c black",
"&	c #fffffffffbee",
"*	c #ffffebad7df7",
"=	c #7df77df77df7",
"-	c #ffff00000000",
";	c #a69928a228a2",
":	c #ffff7df77df7",
">	c #d34c96589658",
",	c #ffff86170000",
"<	c #ffffc30b7df7",
"                         ....                         ",
"                       ........                       ",
"                      ..........                      ",
"                      ..........                      ",
"                     .....X......                     ",
"                     ....X.......                     ",
"               oooO  .....X......   ++++              ",
"             OoooOOOO............ ++++++++            ",
"            OOOOOOOOOO.......... ++++++++++           ",
"            OOOOOOOOOOo......... ++++++++++           ",
"           OOOOO@OOOOOOo....... +++#+#++++++          ",
"           OOOO@OOOOOOO  ....   ++++#+++++++          ",
"    $$$$   OOOOO@OOOOOO  $ooo   +++++#++++++  %%%%    ",
"  $$$$$$$$ OOOOOOOOOOOO$$$$$$$$ ++++++++++++%%%%%%%%  ",
" $$$$$$$$$$ OOOOOOOOOO$$$$$$$$$$ ++++++++++%%%%%%%%%% ",
" $$$$$$$$$$ OOOOOOOOOO$$$$$$$$$$ ++++++++++%%%%%%%%%% ",
"$$$$$&o$$$$$ OOOOOOOOoo$$$*$$$$$$ o+++++++o%%=%=%%%%%%",
"$$$$&ooo$$$$   OOOO  oooo*$$$$$$$   o+++  o%%%=%%%%%%%",
"$$$$o&oo$$$$   ----  ooooo&oooooo   ;;;;  o%%%%=%%%%%%",
"$$$$$oo$$$$$ --------$ooooooooooo ;;;;;;;;o%%%%%%%%%%%",
" $$$$$$$$$$ ----------$ooooooooo ;;;;;;;;;;%%%%%%%%%% ",
" $$$$$$$$$$ ----------$$$$$oooo$ ;;;;;;;;;;%%%%%%%%%% ",
"  $$$$$$$$ ---oo:------$$$$$$$$ ;;;>;>;;;;;;%%%%%%%%  ",
"    $$$$   --oo&o------  $$$$   ;;;;>;;;;;;;  %%%%    ",
"           --ooo&------  ,,,o   ;;;;;>;;;;;;          ",
"           ---oo-------,,,,,ooo ;;;;;;;;;;;;          ",
"            ----------,,,,,,,ooo ;;;;;;;;;;           ",
"            ----------,,,,,,,,,, ;oo;;;;;;;           ",
"             --------,,,<<<,,,,,, ooo;;;;;            ",
"               ----  ,,,,<,,,,,,,   o;;;              ",
"                     ,,,,,<,,,,,,                     ",
"                     ,,,,,,,,,,,,                     ",
"                      ,,,,,,,,,,                      ",
"                      ,,,,,,,,,,                      ",
"                       ,,,,,,,,                       ",
"                         ,,,,                         "};
