/* XPM */
static char * fly_pool_xpm[] = {
"64 40 7 1",
" 	s None	c None",
".	c white",
"X	c brown",
"o	c SpringGreen4",
"O	c black",
"+	c red",
"@	c yellow",
"               .                                                ",
"               ..                                               ",
"                ..                                              ",
"                 ..                                             ",
"                XX.XXXXX                                        ",
"      XXXXXXXXXXooo.ooOOXX                                      ",
"XXXXXXoooooooooooooo.ooOOoXX                                    ",
"XXOOOoooooooooooooooo.ooooooXX                                  ",
"XXXOooooooooooooooooooo.ooooooXX                                ",
" XXXoooooooooooooooooo...oooooooXX                              ",
"  XXXXooooooooooooOoooo.ooooooooooXX                            ",
"   XXXXoooooooooooooooooooooooooooooXX                          ",
"    XXXXoooooooooooooooooo.ooooooooooOXX                        ",
"     XXXXooooooooooooooooooooooooooooOOOXX                      ",
"      XXXXooooooooooooooooooooooooooooooooXX                    ",
"       XXXXoooooooooooooooooo.ooooooooooooooXX                  ",
"        XXXXooooooooooooooooooooooooooooooooooXX                ",
"         XXXXoooooooooooooooooooooooooooooooooooXX              ",
"          XXXXOOOooooooooooooooo.oooooooooooooooooXX            ",
"           XXXXOOoooooooooooooooo++@@@ooooooooooooooXX          ",
"            XXXXXoooooooooooooooo++@@O@++@ooooooooooooXX        ",
"             XXXXXooooooooooooooo@@+OOO+@@@+ooooooooooooXX      ",
"              XXXXXooooooooooooooo++@O@+@@+++oooooooooooooXX    ",
"               XXXXXoooooooooooooo@+@@+++@@+ooooooooooooooOOXX  ",
"                XXXXXooooooooooooo+++@@+ooooooooooooooooooOOOXXX",
"                 XXXXXooooooooooooo+ooooooooooooooooooooXXOOXXX ",
"                  XXXXXoooooooooooooooooooooooooooooXXXXXXXXXXX ",
"                   XXXXXooooooooooooooooooooooooXXXXXXXXXXXXXX  ",
"                    XXXXXXooooooooooooooooooXXXXXXXXXX+XXXXXXX  ",
"                     XXXXXXoooooooooooooXXXXXXXXXOOXXX++XXXXX   ",
"                      XXXXXXooOoooooXXXXXXXXXOOOOOOXX+X+XXX     ",
"                       XXXXXXOOOXXXXXXXXXXOOOOOOOXXXX+XX+       ",
"                        XXXXXXOXXXXXXXXXOOOOOXXXXXXX +   +      ",
"                         XXXXXXXXXXXXXXXOOXXXXXXX    +  ++      ",
"                          XXXXXXXXXXXXXXXXXXXX      + ++        ",
"                           XXXXXXXXXXXXXXX          ++          ",
"                            XXXXXXXXXXX                         ",
"                             XXXXXXX                            ",
"                              XX                                ",
"                                                                "};
