/* XPM */
static char * fly_snooker_xpm[] = {
"64 40 10 1",
" 	s None	c None",
".	c brown",
"X	c black",
"o	c SpringGreen4",
"O	c white",
"+	c AntiqueWhite",
"@	c red",
"#	c blue",
"$	c green",
"%	c yellow",
"                                                                ",
"                                                                ",
"                                                                ",
"                                                                ",
"                                        ........                ",
"                                      ..XXooOooo..........      ",
"                                    ..ooOooooooooooooooooo..... ",
"                                  ..OoooooooooooooooooooooooXX+.",
"                                ..ooooooooooO@@@Xoooooooooooo+.+",
"                              ..ooooooooooooo@@@@@oooooooooo..+ ",
"                            ..ooooooooooOoooo+@ooooooooooo...   ",
"                          ..ooooooooooooooooooooooooooooo...    ",
"                        ..ooooooooooOooooooooooooooooooo...     ",
"                      ..XXooooooooooooooooooooooooooooo...      ",
"                    ..ooooooooooOooooooooooooooooooooo...       ",
"                  ..ooooooooooooooooooooooooooooooooo...        ",
"                ..ooooooooooOoooooo##ooooooooooooooo...         ",
"              ..ooooooooooooooooooooooooooooooooooo...          ",
"            ..ooooooooooOoooooooooooooooooooooooXX...           ",
"          ..ooooooooooooooooooooooooooooooooooooX.+.            ",
"        ..ooooooooooOoooooooooooooooooooooooooo..+.             ",
"      ..ooooooooOoooooo$$oo.oooooooooooooooooo..+.+             ",
"    ..oooooooooOOOoooooooo..ooooooooooooooooo....+              ",
"  ..ooooooooooOoOoooooooooooo%%ooooooooooooo....                ",
" .+XXoooooooOOooooooooooooooooooooooooooooo....                 ",
"  .+XX..ooOOoooooooooooooooooooooooooooooo....                  ",
"  +.+...OO..ooooooooooooooooooooooooooooo....                   ",
"   +..OO........oooooooooooooooooooooooo....                    ",
"  + +O..............oooooooooooooooooo.....                     ",
"       .................ooooooooooooo.....                      ",
"           .................oooooooo.....                       ",
"              ..................oXX.....                        ",
"                 ................X.....                         ",
"                     ...........+.+...                          ",
"                        .........+...                           ",
"                           .....+.+.                            ",
"                               ..+.                             ",
"                                                                ",
"                                                                ",
"                                                                "};
