/* XPM */
static char * fly_cannon_xpm[] = {
"64 40 5 1",
" 	s None	c None",
".	c brown",
"X	c SpringGreen4",
"o	c white",
"O	c red",
"                                                                ",
"                                                                ",
"                                                                ",
"                                                                ",
"                                                                ",
"                                                                ",
"                                                                ",
"                                                                ",
"                                                                ",
"                                                                ",
"                                                                ",
"                                                                ",
"                                                                ",
"                                                                ",
"     ......................................................     ",
"     .XXXXXXXXXXXXXXXXXXXXXXXXXoXXXXXXXXXXXXXXXXXXXXXXXXXX.     ",
"    .XXXXXXXXXXXXXXXXXXXXXXoXXXXXXXoXXXXXXXXXXXXXXXXXXXXXXX.    ",
"    .XXXXXXXXXXX..XXXXXoXXXXXXXXXXXXXXXoXXXXXXXXXXXXXXXXXXX.    ",
"   ..XXXXXXXXXXXXXXoXXXXXXXXXXXXXXXXXXXXXXXoXXXXXXXXXXXXXXX..   ",
"   .XXXXXXXXXXXooXXXXXXXXXXXXXXXXXXXXXXXXXXXXXXoOOXXXXXXXXXX.   ",
"  ..XXXXXXXXXXXooXXXXXXXXXXXXXXX..XXXXXXXXXXXXXXOOXooXXXXXXX..  ",
"  .XXXXXXXXXXXXXXXXXXXXXXXXXXXXXXXXXXXXXXXXXXXXXXXXXXooooXXXX.  ",
" ..XXXXXXXXXXXooXXXXXXXXXXXXXXXXXXXXXXXXXXXXXXXXXXXXXXXXooooX.. ",
" ..XXXXXXXXXXXooXXXXXXXXXXXXXXXXXXXXXXXXXXXXXXXXXXXXXXXXXXooooo ",
"..XXXXXXXXXXXXXXXXXXXXXXXXXXXXXXXXXXXXXXXXXXXXXXXXXXXXXXXXXXXooo",
"................................................................",
"................................................................",
" .............................................................. ",
"  ............................................................  ",
"   ..........................................................   ",
"    ........................................................    ",
"                                                                ",
"                                                                ",
"                                                                ",
"                                                                ",
"                                                                ",
"                                                                ",
"                                                                ",
"                                                                ",
"                                                                "};
