/* XPM */
static char * fly_8ball_xpm[] = {
"54 60 20 1",
" 	s None	c None",
".	c #ffff86170000",
"X	c #ffffc30b7df7",
"o	c #fffffffff3ce",
"O	c #ffff00000000",
"+	c #ffff7df77df7",
"@	c #6185924871c6",
"#	c #00000000ffff",
"$	c #30c282074924",
"%	c #7df77df7ffff",
"&	c #fffffffffbee",
"*	c #ffffd75c0000",
"=	c #96580000d34c",
"-	c #cb2b7df7ebad",
";	c black",
":	c #ffffebad7df7",
">	c #7df77df77df7",
",	c #9a69c30ba699",
"<	c #a69928a228a2",
"1	c #d34c96589658",
"                                              ....    ",
"                                            ........  ",
"                                           .......... ",
"                                           .......... ",
"                                          .....X......",
"                                          ....X.......",
"                                    oOOO  .....X......",
"                                  ooOOOOOO............",
"                                 ooOOOOOOOO.......... ",
"                                 oOOOOOOOOO.......... ",
"                                ooO+O+OOooOO........  ",
"                                ooOO+OOooooO@@.ooo    ",
"                         ####   ooOOO+OooooO@@$$$$    ",
"                       ######## ooOOOOOOooOO$$$$$ooo  ",
"                      ########## oOOOOOOOOO$$$$$ooooo ",
"                      ########## ooOOOOOOOO$$$ooooooo ",
"                     #####%###### ooOOOOOO$$$&o&ooo$$$",
"                     ####%#######   oOOO  $$oo&oo$$$$$",
"               ****  #####%######   ====  $oooo&$$$$$$",
"             ********############ ========ooooo$$$$$$$",
"            **********########## ==========ooo$$$$$$$ ",
"            oooo******########## ==========oo$$$$$$$o ",
"           ooooo&ooooo*######## ===-=-======o$$$$$$o  ",
"           oooo&ooooooo  ####   ====-=======  $$$$    ",
"    ****   ooooo&oooooo  ;;;o   =====-======  $$$$    ",
"  ******** ********oooo;;;;;;;; ============$$$$$$$$  ",
" ********** **********;;;;;;;;;; ==========$$$$$$$$$$ ",
" ********** **********;;;;;;;;;; =========o$$$$$$$$$$ ",
"*****:****** ********;;;;;>;;;;;; =======o$$$,$,$$$$$$",
"****:*******   oo**  ;;;;>;;;;;;;   ====  $$$$,$$$$$$$",
"*****:******   oooo  ;;;;;>;;;;;;   ====  $$$$$,$$$$$$",
"************ #####ooo;;;;;;;;;;;; ========$$$$$$$$$$$$",
" ********** #######ooo;;;;;;;;;; =oooo=====$$$$$$$$$$ ",
" ********** ########oo;;;;;;;;;; ooooooooo=$$$$$$$$$$ ",
"  ******** #####%####oo;;;;;;;; ooo&o&ooooo=$$$$$$oo  ",
"    ooo*   ##oo%#####oo  ;;;;   oooo&ooooooo  $$$o    ",
"           #oooo%####oo  OOOO   =====-==oooo  <<<<    ",
"           ##ooo#####ooOOooooOO ==========oo<<<<<<<<  ",
"            #ooo#####oOOOooooOOO ==========<<<<<<<<<< ",
"            ########ooOOOOooOOOO ==========<<<<oo<<<< ",
"             #######oOOO+++OOOOOO ========<<<1&&oo<<<<",
"               ####  OOOO+OOOOOOO   ooo=  <<<<&ooo<<<<",
"                     OOOOO+OOOOOO   o...  <<<<<&o<<<<<",
"                     OOOOOOOOOOOO ooo.....<<<<<<<<<<<<",
"                      OOOOOOOOOO .ooo.....o<<<<<<<<<< ",
"                      OOOOOOOOOO .oooo.....<<<<<<<<<< ",
"                       OOOOOOOO ..o&&&.....o<<<<<<<<  ",
"                         OOOO   ...o&oo.....  <<<<    ",
"                                ...oo&o.....  <<oo    ",
"                                ....oooo....<<<<<<<<  ",
"                                 ...ooooo..<<<<<<<<<< ",
"                                 ....ooooo.<<<<<<<<<< ",
"                                  ....ooooooo111<<<<<<",
"                                    ...o  oooo&o<<<<<<",
"                                          ooooo&oooooo",
"                                          <<oooooooooo",
"                                           <<<ooooooo ",
"                                           <<<<<<<ooo ",
"                                            <<<<<<<<  ",
"                                              <<<<    "};
