/* XPM */
static char * fly_carrom_xpm[] = {
"48 48 5 1",
" 	c black",
".	c DarkGoldenrod",
"X	c tan",
"o	c red",
"O	c cyan",
"                                                ",
"  ..                                        ..  ",
" ....                                      .... ",
" ....XXXXXXXXXXXXXXXXXXXXXXXXXXXXXXXXXXXXXX.... ",
"  ..XXXXXXXXXXXXXXXXXXXXXXXXXXXXXXXXXXXXXXXX..  ",
"   XXXXXXXXXXXXXXXXXXXXXXXXXXXXXXXXXXXXXXXXXX   ",
"   XXX XXXoo                        ooXXX XXX   ",
"   XXXX XooooXXXXXXXXXXXXXXXXXXXXXXooooX XXXX   ",
"   XXXXX ooooXXXXXXXXXXXXXXXXXXXXXXoooo XXXXX   ",
"   XXXXoo oo                        oo ooXXXX   ",
"   XXXoooo XXXXXXXXXXXXXXXXXXXXXXXXXX ooooXXX   ",
"   XXXooooX XXXXXXXXXXXXXXXXXXXXXXXX XooooXXX   ",
"   XXX oo XX XX  XXXXXXXXXXXXXX  XX XX oo XXX   ",
"   XXX XX XXX XX XXXXXXXXXXXXXX XX XXX XX XXX   ",
"   XXX XX XXXX XX XXXXXXXXXXXX XX XXXX XX XXX   ",
"   XXX XX XX XX  XXXXXXXXXXXXXX  XX XX XX XXX   ",
"   XXX XX XX  X  XXXXXXXXXXXXXX  X  XX XX XXX   ",
"   XXX XX XXXX XXXXXXXX..XXXXXXXX XXXX XX XXX   ",
"   XXX XX XXXXXXXXX..  ..  ..XXXXXXXXX XX XXX   ",
"   XXX XX XXXXXXX  ..      ..  XXXXXXX XX XXX   ",
"   XXX XX XXXXXXX   ...  ...   XXXXXXX XX XXX   ",
"   XXX XX XXXXXXX..  ......  ..XXXXXXX XX XXX   ",
"   XXX XX XXXXXXX...   ..   ...XXXXXXX XX XXX   ",
"   XXX XX XXXXXXX  ..  oo  ..  XXXXXXX XX XXX   ",
"   XXX XX XXXXXXX  ....oo....  XXXXXXX XX XXX   ",
"   XXX XX XXXXXXX..  ..  ..  ..XXXXXXX XX XXX   ",
"   XXX XX XXXXXXX..  ..  ..  ..XXXXXXX XX XXX   ",
"   XXX XX XXXXXXXXX  ..  ..  XXXXXXXXX XX XXX   ",
"   XXX XX XXXXXXXXX  ..  ..  XXXXXXXXX XX XXX   ",
"   XXX XX XXXXXXXXXXX..  ..XXXXXXXXXXX XX XXX   ",
"   XXX XX XXXX XXXXXXXX  XXXXXXXX XXXX XX XXX   ",
"   XXX XX XX  X  XXXXXXXXXXXXXX  X  XX XX XXX   ",
"   XXX XX XX XX  XXXXXXXXXXXXXX  XX XX XX XXX   ",
"   XXX XX XXXX XX XXXXXXXXXXXX XX XXXX XX XXX   ",
"   XXX XX XXX XX XXXXXXXXXXXXXX XX XXX XX XXX   ",
"   XXX oo XX XX  XXXXXXXXXXXXXX  XX XX oo XXX   ",
"   XXXooooX XXXXXXXXXXXXXXXXXXXXXXXX XooooXXX   ",
"   XXXoooo XXXXXXXXXXXXXXXXXXXXXXXXXX ooooXXX   ",
"   XXXXoo oo                        oo ooXXXX   ",
"   XXXXX ooooXXXXXXXXXXXXXXXXXXXXXXoooo XXXXX   ",
"   XXXX XooooXXXOOXXXXXXXXXXXXXXXXXooooX XXXX   ",
"   XXX XXXoo   OOOO                 ooXXX XXX   ",
"   XXXXXXXXXXXXOOOOXXXXXXXXXXXXXXXXXXXXXXXXXX   ",
"  ..XXXXXXXXXXXXOOXXXXXXXXXXXXXXXXXXXXXXXXXX..  ",
" ....XXXXXXXXXXXXXXXXXXXXXXXXXXXXXXXXXXXXXX.... ",
" ....                                      .... ",
"  ..                                        ..  ",
"                                                "};
